340021ebbd371264006e64a8f8c8ab48 *tests/data/fate/cover-art-flac-remux.flac
1186584 tests/data/fate/cover-art-flac-remux.flac
#extradata 0:       34, 0xa7af0b8b
#tb 0: 1/44100
#media_type 0: audio
#codec_id 0: flac
#sample_rate 0: 44100
#channel_layout_name 0: 2 channels (FL+FC)
#tb 1: 1/90000
#media_type 1: video
#codec_id 1: png
#dimensions 1: 200x200
#sar 1: 2834/2834
#tb 2: 1/90000
#media_type 2: video
#codec_id 2: png
#dimensions 2: 485x359
#sar 2: 1/1
#tb 3: 1/90000
#media_type 3: video
#codec_id 3: mjpeg
#dimensions 3: 199x300
#sar 3: 72/72
#tb 4: 1/90000
#media_type 4: video
#codec_id 4: bmp
#dimensions 4: 485x359
#sar 4: 0/1
#tb 5: 1/90000
#media_type 5: video
#codec_id 5: mjpeg
#dimensions 5: 199x300
#sar 5: 72/72
#tb 6: 1/44100
#media_type 6: audio
#codec_id 6: pcm_s16le
#sample_rate 6: 44100
#channel_layout_name 6: 2 channels (FL+FC)
0,          0,          0,     1152,       14, 0x263a03f6
1,          0,          0,        0,    66888, 0x1fd72743
2,          0,          0,        0,   524392, 0x814b1166
3,          0,          0,        0,    21671, 0x7d1c6030
4,          0,          0,        0,   522758, 0x7a63572f
5,          0,          0,        0,    21671, 0x7d1c6030
6,          0,          0,     1152,     4608, 0x00000000
0,       1152,       1152,     1152,       14, 0x25220392
6,       1152,       1152,     1152,     4608, 0x00000000
0,       2304,       2304,     1152,       14, 0x259f0427
6,       2304,       2304,     1152,     4608, 0x00000000
0,       3456,       3456,     1152,       14, 0x26c10491
6,       3456,       3456,     1152,     4608, 0x00000000
0,       4608,       4608,     1152,     1223, 0xad3c51eb
6,       4608,       4608,     1152,     4608, 0xe3656587
0,       5760,       5760,     1152,     3024, 0x69e8ab81
6,       5760,       5760,     1152,     4608, 0x2983e164
0,       6912,       6912,     1152,     2164, 0x6c85fdd1
6,       6912,       6912,     1152,     4608, 0xfe3d2570
0,       8064,       8064,     1152,     2018, 0x2cb0bd90
6,       8064,       8064,     1152,     4608, 0xf10ae0e9
0,       9216,       9216,     1152,     1733, 0x612d5664
6,       9216,       9216,     1152,     4608, 0x146df22f
0,      10368,      10368,     1152,     1606, 0x9662ff1a
6,      10368,      10368,     1152,     4608, 0x205dcde2
0,      11520,      11520,     1152,     1563, 0x934dd5ac
6,      11520,      11520,     1152,     4608, 0xe17e9e9e
0,      12672,      12672,     1152,     1607, 0x5e4bef2d
6,      12672,      12672,     1152,     4608, 0x0cc0b076
0,      13824,      13824,     1152,     1706, 0x3572502e
6,      13824,      13824,     1152,     4608, 0x489c2599
0,      14976,      14976,     1152,     1619, 0xec560202
6,      14976,      14976,     1152,     4608, 0x553f2fce
0,      16128,      16128,     1152,     1448, 0xa98c8cf8
6,      16128,      16128,     1152,     4608, 0xd6eb7f93
0,      17280,      17280,      360,      456, 0x41ebd640
6,      17280,      17280,      360,     1440, 0xda3c878c
[STREAM]
index=0
codec_name=flac
DISPOSITION:attached_pic=0
[/STREAM]
[STREAM]
index=1
codec_name=png
DISPOSITION:attached_pic=1
TAG:comment=Illustration
TAG:title=OpenMusic
[/STREAM]
[STREAM]
index=2
codec_name=png
DISPOSITION:attached_pic=1
TAG:comment=Cover (front)
TAG:title=landscape
[/STREAM]
[STREAM]
index=3
codec_name=mjpeg
DISPOSITION:attached_pic=1
TAG:comment=Publisher/Studio logotype
TAG:title=portrait
[/STREAM]
[STREAM]
index=4
codec_name=bmp
DISPOSITION:attached_pic=1
TAG:comment=Conductor
TAG:title=White King Granulated Soap
[/STREAM]
[STREAM]
index=5
codec_name=mjpeg
DISPOSITION:attached_pic=1
TAG:comment=Publisher/Studio logotype
TAG:title=White King Granulated Soap
[/STREAM]
[FORMAT]
TAG:major_brand=M4A 
TAG:minor_version=0
TAG:compatible_brands=M4A mp42isom
TAG:disc=1
TAG:title=Inside
TAG:compilation=1
TAG:gapless_playback=0
TAG:track=5/13
TAG:Encoding Params=vers
TAG:iTunNORM= 000004DF 000004C2 00001E64 00001AB3 00000FB9 00000FB9 00006480 00006480 00000FB9 00000B52
TAG:artist=Maxwell Strait
TAG:album_artist=Maxwell Strait
TAG:album=OpenMusic
TAG:genre=Rock
[/FORMAT]
